<svg xmlns="http://www.w3.org/2000/svg" viewBox="0 0 57.63 83.47"><defs><style>.cls-1{fill:#fff;}.cls-2{fill:none;}</style></defs><g id="Layer_2" data-name="Layer 2"><g id="Layer_1-2" data-name="Layer 1"><g id="Layer_2-2" data-name="Layer 2"><g id="LOGO_STICKER_2" data-name="LOGO STICKER 2"><g id="LOGO"><polygon class="cls-1" points="45.8 45.13 45.8 74.33 41.19 83.47 41.19 35.99 45.8 45.13"/><path class="cls-1" d="M36.41,63.7l5.77-4.9L47,54.68l10.6-9L31.61,0V67.83m10.62-15-5.77,4.91V18L51.69,44.77l-4.66,4Z"/><polygon class="cls-1" points="37.45 56.8 37.45 62.65 32.84 66.7 28.82 70.24 28.82 64.39 32.84 60.86 37.45 56.8"/><line class="cls-2" x1="28.82" y1="70.24" x2="28.82" y2="64.39"/><polygon class="cls-1" points="11.83 45.13 11.83 74.33 16.45 83.47 16.45 35.99 11.83 45.13"/><path class="cls-1" d="M26.07,67.83V0L0,45.66l10.61,9,4.85,4.12,5.76,4.9m-10.61-15L6,44.73,21.22,18V57.76l-5.76-4.91Z"/><polygon class="cls-1" points="20.18 56.8 20.18 62.65 24.79 66.7 28.82 70.24 28.82 64.39 24.79 60.86 20.18 56.8"/><line class="cls-2" x1="28.82" y1="70.24" x2="28.82" y2="64.39"/></g></g></g></g></g></svg>